<svg xmlns="http://www.w3.org/2000/svg" width="1600" height="1000" viewBox="0 0 1600 1000" role="img" aria-label="A cleaner shop narrative for customers who care about finish.">
  <defs>
    <linearGradient id="bg" x1="0" x2="1" y1="0" y2="1">
      <stop offset="0" stop-color="#14100d"/>
      <stop offset="0.55" stop-color="#b08968"/>
      <stop offset="1" stop-color="#e6ccb2"/>
    </linearGradient>
    <radialGradient id="glow" cx="70%" cy="20%" r="65%">
      <stop offset="0" stop-color="#fff6ee" stop-opacity=".9"/>
      <stop offset=".45" stop-color="#e6ccb2" stop-opacity=".25"/>
      <stop offset="1" stop-color="#14100d" stop-opacity="0"/>
    </radialGradient>
  </defs>
  <rect width="1600" height="1000" fill="url(#bg)"/>
  <rect width="1600" height="1000" fill="url(#glow)"/>
  <g fill="none" stroke="#fff6ee" stroke-opacity=".24" stroke-width="2">
    <path d="M120 210 H1480 M120 430 H1480 M120 650 H1480 M120 870 H1480"/>
    <path d="M280 80 V920 M560 80 V920 M840 80 V920 M1120 80 V920 M1400 80 V920"/>
  </g>
  <circle cx="1260" cy="240" r="170" fill="#fff6ee" opacity=".16"/>
  <circle cx="1260" cy="240" r="92" fill="#14100d" opacity=".45"/>
  <g opacity=".58"><rect x="1010" y="210" width="130" height="480" rx="65" fill="#fff6ee"/><path d="M1010 300l130-76M1010 420l130-76M1010 540l130-76M1010 660l130-76" stroke="#b08968" stroke-width="28"/><path d="M1240 260h180M1240 330h140M1240 400h190" stroke="#e6ccb2" stroke-width="18" stroke-linecap="round"/></g>
  <rect x="120" y="590" width="760" height="190" rx="28" fill="#14100d" opacity=".62"/>
  <text x="160" y="675" font-family="Arial, Helvetica, sans-serif" font-size="74" font-weight="900" fill="#fff6ee">A cleaner shop narrative for customers who care about finish.</text>
  <text x="164" y="735" font-family="Arial, Helvetica, sans-serif" font-size="32" font-weight="700" fill="#e6ccb2">Soehat grooming route</text>
  <text x="128" y="146" font-family="Arial, Helvetica, sans-serif" font-size="26" font-weight="800" fill="#fff6ee" opacity=".74">BARBER EXPERIENCE</text>
</svg>