<svg xmlns="http://www.w3.org/2000/svg" width="1600" height="1000" viewBox="0 0 1600 1000" role="img" aria-label="Pick service">
  <defs>
    <linearGradient id="bg" x1="0" x2="1" y1="0" y2="1"><stop offset="0" stop-color="#120f0c"/><stop offset=".58" stop-color="#211914"/><stop offset="1" stop-color="#b08968"/></linearGradient>
    <pattern id="grain" width="48" height="48" patternUnits="userSpaceOnUse"><path d="M0 48L48 0M-12 12L12-12M36 60L60 36" stroke="#bda892" stroke-opacity=".13"/></pattern>
  </defs>
  <rect width="1600" height="1000" fill="url(#bg)"/>
  <rect width="1600" height="1000" fill="url(#grain)"/>
  <g fill="none" stroke="#fff5e8" stroke-opacity=".18" stroke-width="2"><path d="M120 210H1480M120 430H1480M120 650H1480M120 870H1480"/><path d="M280 80V920M560 80V920M840 80V920M1120 80V920M1400 80V920"/></g>
  <g opacity=".58"><rect x="1010" y="220" width="135" height="470" rx="67" fill="#e6ccb2"/><path d="M1010 320l135-78M1010 450l135-78M1010 580l135-78" stroke="#b08968" stroke-width="28"/></g>
  <rect x="118" y="586" width="790" height="204" rx="28" fill="#120f0c" opacity=".72"/>
  <text x="160" y="676" font-family="Arial, Helvetica, sans-serif" font-size="72" font-weight="900" fill="#fff5e8">Pick service</text>
  <text x="164" y="736" font-family="Arial, Helvetica, sans-serif" font-size="30" font-weight="700" fill="#e6ccb2">Smooth portrait reveal, razor-line dividers, calm service hover.</text>
  <text x="128" y="146" font-family="Arial, Helvetica, sans-serif" font-size="26" font-weight="800" fill="#fff5e8" opacity=".74">WORKFLOW</text>
</svg>